<svg width="42" height="43" viewBox="0 0 42 43" fill="none" xmlns="http://www.w3.org/2000/svg">
<g filter="url(#filter0_b_1_43)">
<rect width="42" height="43" rx="10" fill="#0A0930" fill-opacity="0.3"/>
<path d="M20.1161 30.8839C20.6043 31.372 21.3957 31.372 21.8839 30.8839L29.8388 22.9289C30.327 22.4408 30.327 21.6493 29.8388 21.1612C29.3507 20.673 28.5592 20.673 28.0711 21.1612L21 28.2322L13.9289 21.1612C13.4408 20.673 12.6493 20.673 12.1612 21.1612C11.673 21.6493 11.673 22.4408 12.1612 22.9289L20.1161 30.8839ZM22.25 13C22.25 12.3096 21.6904 11.75 21 11.75C20.3096 11.75 19.75 12.3096 19.75 13L22.25 13ZM22.25 30L22.25 13L19.75 13L19.75 30L22.25 30Z" fill="#E72D04"/>
</g>
<defs>
<filter id="filter0_b_1_43" x="-20" y="-20" width="82" height="83" filterUnits="userSpaceOnUse" color-interpolation-filters="sRGB">
<feFlood flood-opacity="0" result="BackgroundImageFix"/>
<feGaussianBlur in="BackgroundImageFix" stdDeviation="10"/>
<feComposite in2="SourceAlpha" operator="in" result="effect1_backgroundBlur_1_43"/>
<feBlend mode="normal" in="SourceGraphic" in2="effect1_backgroundBlur_1_43" result="shape"/>
</filter>
</defs>
</svg>
