<svg width="42" height="43" viewBox="0 0 42 43" fill="none" xmlns="http://www.w3.org/2000/svg">
<g filter="url(#filter0_b_1_52)">
<rect width="42" height="43" rx="10" fill="#0A0930" fill-opacity="0.3"/>
<path d="M20.1161 12.1161C20.6043 11.628 21.3957 11.628 21.8839 12.1161L29.8388 20.0711C30.327 20.5592 30.327 21.3507 29.8388 21.8388C29.3507 22.327 28.5592 22.327 28.0711 21.8388L21 14.7678L13.9289 21.8388C13.4408 22.327 12.6493 22.327 12.1612 21.8388C11.673 21.3507 11.673 20.5592 12.1612 20.0711L20.1161 12.1161ZM22.25 30C22.25 30.6904 21.6904 31.25 21 31.25C20.3096 31.25 19.75 30.6904 19.75 30L22.25 30ZM22.25 13L22.25 30L19.75 30L19.75 13L22.25 13Z" fill="#00C287"/>
</g>
<defs>
<filter id="filter0_b_1_52" x="-20" y="-20" width="82" height="83" filterUnits="userSpaceOnUse" color-interpolation-filters="sRGB">
<feFlood flood-opacity="0" result="BackgroundImageFix"/>
<feGaussianBlur in="BackgroundImageFix" stdDeviation="10"/>
<feComposite in2="SourceAlpha" operator="in" result="effect1_backgroundBlur_1_52"/>
<feBlend mode="normal" in="SourceGraphic" in2="effect1_backgroundBlur_1_52" result="shape"/>
</filter>
</defs>
</svg>
